# xmcd
#
# Track frame offsets:
#	150
#	14876
#	32309
#	54055
#	70761
#	90933
#	104753
#	121580
#	139941
#	155813
#	172890
#	190757
#	210136
#	232441
#	253815
#	272984
#	289888
#
# Disc length: 4134 seconds
#
# Revision: 3
# Processed by: cddbd v1.5.2PL0 Copyright (c) Steve Scherf et al.
# Submitted via: EZCDAudioConverter 8.0.2.1
#
DISCID=f0102411
DTITLE=Various Artist - HHT All Stars. Day and Night. Tình Ca Cho Ngày Và Đêm
DYEAR=2011
DGENRE=Contemporary Pop
TTITLE0=Minh Hằng - Sắc môi em hồng
TTITLE1=Văn Mai Hương - Ngày chung đôi
TTITLE2=365daband - Âm nhạc trong tôi
TTITLE3=X5 Band - Quên đi
TTITLE4=Tăng Nhật Tuệ - Đẹp
TTITLE5=Phương Vy - Khóc đi
TTITLE6=Hồ Vĩnh Khoa - Hãy gọi cho anh
TTITLE7=Quốc Thiên - Đông dịu ngọt
TTITLE8=Yến Nhi - Trong một khoảng lặng
TTITLE9=Ông Cao Thắng - Hãy cho anh cơ hội
TTITLE10=Mạnh Quân - Ngày tháng theo gió bay
TTITLE11=Đại Nhân - Một lần buông tay
TTITLE12=Phạm Quỳnh Anh - Nước mắt
TTITLE13=Ưng Đại Vệ - Một người đau, Một người hạnh phúc
TTITLE14=Hamlet Trương - Chờ em trong mưa
TTITLE15=Thanh hằng Binh Boong - Một
TTITLE16=HHT ICON Đàm Phương Linh and M.Coda Band - Love Is All Around and Do You 
TTITLE16=Know It's Christmas Time
EXTD=
EXTT0=
EXTT1=
EXTT2=
EXTT3=
EXTT4=
EXTT5=
EXTT6=
EXTT7=
EXTT8=
EXTT9=
EXTT10=
EXTT11=
EXTT12=
EXTT13=
EXTT14=
EXTT15=
EXTT16=
PLAYORDER=
